# xmcd
#
# Track frame offsets:
#	150
#	10887
#	26456
#	45066
#	56410
#	73895
#	84144
#	96415
#	113865
#	128477
#	138946
#	152277
#	166691
#	182109
#	196113
#	214682
#	229765
#	244882
#	257338
#	272377
#
# Disc length: 3859 seconds
#
# Revision: 1
# Processed by: cddbd v1.5.2PL0 Copyright (c) Steve Scherf et al.
# Submitted via: audiograbber 1.83.01
#
DISCID=f00f1114
DTITLE=Various  - Country Ladies The Album CD2
DYEAR=2006
DGENRE=Country
TTITLE0=SANDY POSEY  - Single Girl 
TTITLE1=CRYSTAL GAYLE - When I Dream  
TTITLE2=JUICE NEWTON - Angel Of The Morning  
TTITLE3=PATTY LOVELESS  - Timber, I'm Falling In Love 
TTITLE4=EMMYLOU HARRIS - Together Again  
TTITLE5=JAN HOWARD  - I Wish I Could Fall In Love Again 
TTITLE6=TANYA TUCKER - You Are So Beautiful  
TTITLE7=JANIE FRICKE - Sleeping With Your Memory 
TTITLE8=LACY J. DALTON  - Blue-Eyed Blues 
TTITLE9=SUE THOMPSON  - Norman 
TTITLE10=NINA MARTIN - Love Me Tender  
TTITLE11=LA TOYA JACKSON  - Dance Away These Blues Tonight 
TTITLE12=TINA TURNER  - If This Is Our Last Time 
TTITLE13=SUE POWELL - (There's No Me) Without You  
TTITLE14=DEBORAH ALLEN  - Baby I Lied 
TTITLE15=SYLVIA - Nobody  
TTITLE16=LOUISE MANDRELL  - I Wanna Say Yes 
TTITLE17=ZELLA LEHR  - Two Doors Down 
TTITLE18=DOTTSY - (After Sweet Memories) Play Born To Lose Again  
TTITLE19=AUDREY LANDERS - Blue Bayou  
EXTD=
EXTT0=
EXTT1=
EXTT2=
EXTT3=
EXTT4=
EXTT5=
EXTT6=
EXTT7=
EXTT8=
EXTT9=
EXTT10=
EXTT11=
EXTT12=
EXTT13=
EXTT14=
EXTT15=
EXTT16=
EXTT17=
EXTT18=
EXTT19=
PLAYORDER=
